<?xml version="1.0" encoding="UTF-8" standalone="no"?><!DOCTYPE svg PUBLIC "-//W3C//DTD SVG 1.1//EN" "http://www.w3.org/Graphics/SVG/1.1/DTD/svg11.dtd"><svg width="100%" height="100%" viewBox="0 0 1418 1418" version="1.1" xmlns="http://www.w3.org/2000/svg" xmlns:xlink="http://www.w3.org/1999/xlink" xml:space="preserve" xmlns:serif="http://www.serif.com/" style="fill-rule:evenodd;clip-rule:evenodd;stroke-linecap:round;stroke-linejoin:round;stroke-miterlimit:1.5;"><path d="M1239.3,42.52l104.897,1332.28l-1264.01,-199.264l-7.052,-915.311l1166.17,-217.708Z" style="fill:#fff;stroke:#fff;stroke-width:81.25px;"/><path d="M1224.02,742.724c15.24,-15.241 15.24,-39.987 0,-55.227l-506.215,-506.214c-15.24,-15.241 -39.986,-15.241 -55.226,0l-505.441,505.44c-15.24,15.24 -15.24,39.987 0,55.227l506.214,506.214c15.241,15.24 39.987,15.24 55.227,0l505.441,-505.44Zm-255.558,-177.796l-488.336,365.665l212,211.424l427.738,-427.407l-151.402,-149.682Zm-276.206,-278.26l-429.725,428.29l151.313,149.088l486.573,-367.241l-208.161,-210.137Z" style="fill:#3d4366;"/></svg>