<?xml version="1.0" encoding="UTF-8" standalone="no"?><!DOCTYPE svg PUBLIC "-//W3C//DTD SVG 1.1//EN" "http://www.w3.org/Graphics/SVG/1.1/DTD/svg11.dtd"><svg width="100%" height="100%" viewBox="0 0 274 75" version="1.1" xmlns="http://www.w3.org/2000/svg" xmlns:xlink="http://www.w3.org/1999/xlink" xml:space="preserve" xmlns:serif="http://www.serif.com/" style="fill-rule:evenodd;clip-rule:evenodd;stroke-linejoin:round;stroke-miterlimit:2;"><g><path d="M38.648,74.187c-7.322,0 -13.919,-1.606 -19.79,-4.818c-5.872,-3.212 -10.483,-7.65 -13.833,-13.314c-3.35,-5.664 -5.025,-11.985 -5.025,-18.961c0,-6.977 1.675,-13.297 5.025,-18.962c3.35,-5.664 7.961,-10.102 13.833,-13.314c5.871,-3.212 12.468,-4.818 19.79,-4.818c7.253,0 13.815,1.606 19.686,4.818c5.872,3.212 10.465,7.633 13.781,13.263c3.316,5.629 4.973,11.967 4.973,19.013c0,7.045 -1.657,13.383 -4.973,19.013c-3.316,5.629 -7.909,10.05 -13.781,13.262c-5.871,3.212 -12.433,4.818 -19.686,4.818Zm0,-9.221c5.319,0 10.102,-1.209 14.35,-3.627c4.248,-2.417 7.599,-5.75 10.051,-9.999c2.452,-4.248 3.678,-8.997 3.678,-14.246c0,-5.25 -1.226,-9.999 -3.678,-14.247c-2.452,-4.248 -5.803,-7.581 -10.051,-9.999c-4.248,-2.418 -9.031,-3.626 -14.35,-3.626c-5.319,0 -10.137,1.208 -14.454,3.626c-4.317,2.418 -7.702,5.751 -10.154,9.999c-2.453,4.248 -3.679,8.997 -3.679,14.247c0,5.249 1.226,9.998 3.679,14.246c2.452,4.249 5.837,7.582 10.154,9.999c4.317,2.418 9.135,3.627 14.454,3.627Z" style="fill:#3d4366;fill-rule:nonzero;"/><path d="M92.941,0.829l30.566,0c7.668,0 14.472,1.52 20.412,4.559c5.941,3.039 10.551,7.305 13.832,12.796c3.282,5.492 4.922,11.795 4.922,18.91c0,7.114 -1.64,13.418 -4.922,18.909c-3.281,5.492 -7.891,9.757 -13.832,12.796c-5.94,3.04 -12.744,4.559 -20.412,4.559l-30.566,0l0,-72.529Zm29.945,63.515c5.871,0 11.034,-1.14 15.49,-3.419c4.455,-2.28 7.892,-5.475 10.309,-9.585c2.418,-4.11 3.627,-8.858 3.627,-14.246c0,-5.388 -1.209,-10.137 -3.627,-14.247c-2.417,-4.11 -5.854,-7.305 -10.309,-9.584c-4.456,-2.28 -9.619,-3.42 -15.49,-3.42l-19.583,0l0,54.501l19.583,0Z" style="fill:#3d4366;fill-rule:nonzero;"/><rect x="178.526" y="0.829" width="10.361" height="72.529" style="fill:#3d4366;fill-rule:nonzero;"/><path d="M273.021,0.829l0,72.529l-8.496,0l-43.517,-54.086l0,54.086l-10.362,0l0,-72.529l8.496,0l43.518,54.086l0,-54.086l10.361,0Z" style="fill:#3d4366;fill-rule:nonzero;"/></g></svg>