<?xml version="1.0" encoding="UTF-8" standalone="no"?><!DOCTYPE svg PUBLIC "-//W3C//DTD SVG 1.1//EN" "http://www.w3.org/Graphics/SVG/1.1/DTD/svg11.dtd"><svg width="100%" height="100%" viewBox="0 0 1279 351" version="1.1" xmlns="http://www.w3.org/2000/svg" xmlns:xlink="http://www.w3.org/1999/xlink" xml:space="preserve" xmlns:serif="http://www.serif.com/" style="fill-rule:evenodd;clip-rule:evenodd;stroke-linejoin:round;stroke-miterlimit:2;"><g><path d="M545.95,288.758c-22.881,0 -43.496,-5.019 -61.844,-15.056c-18.349,-10.038 -32.757,-23.907 -43.227,-41.607c-10.469,-17.701 -15.703,-37.452 -15.703,-59.254c0,-21.802 5.234,-41.554 15.703,-59.254c10.47,-17.701 24.878,-31.57 43.227,-41.608c18.348,-10.037 38.963,-15.056 61.844,-15.056c22.665,0 43.172,5.019 61.52,15.056c18.349,10.038 32.703,23.853 43.065,41.446c10.361,17.592 15.542,37.398 15.542,59.416c0,22.017 -5.181,41.823 -15.542,59.415c-10.362,17.593 -24.716,31.408 -43.065,41.446c-18.348,10.037 -38.855,15.056 -61.52,15.056Zm0,-28.817c16.621,0 31.57,-3.778 44.845,-11.333c13.276,-7.555 23.745,-17.971 31.408,-31.246c7.663,-13.276 11.495,-28.116 11.495,-44.521c0,-16.406 -3.832,-31.246 -11.495,-44.522c-7.663,-13.275 -18.132,-23.691 -31.408,-31.246c-13.275,-7.555 -28.224,-11.333 -44.845,-11.333c-16.621,0 -31.678,3.778 -45.169,11.333c-13.491,7.555 -24.069,17.971 -31.732,31.246c-7.663,13.276 -11.494,28.116 -11.494,44.522c0,16.405 3.831,31.245 11.494,44.521c7.663,13.275 18.241,23.691 31.732,31.246c13.491,7.555 28.548,11.333 45.169,11.333Z" style="fill:#3d4366;fill-rule:nonzero;"/><path d="M715.617,59.513l95.519,0c23.96,0 45.223,4.749 63.787,14.247c18.564,9.498 32.973,22.828 43.226,39.989c10.253,17.16 15.38,36.858 15.38,59.092c0,22.233 -5.127,41.931 -15.38,59.092c-10.253,17.161 -24.662,30.49 -43.226,39.988c-18.564,9.498 -39.827,14.247 -63.787,14.247l-95.519,0l0,-226.655Zm93.576,198.485c18.348,0 34.484,-3.562 48.407,-10.685c13.923,-7.124 24.662,-17.107 32.217,-29.951c7.555,-12.844 11.333,-27.684 11.333,-44.521c0,-16.838 -3.778,-31.678 -11.333,-44.522c-7.555,-12.844 -18.294,-22.827 -32.217,-29.951c-13.923,-7.123 -30.059,-10.685 -48.407,-10.685l-61.197,0l0,170.315l61.197,0Z" style="fill:#3d4366;fill-rule:nonzero;"/><rect x="983.069" y="59.513" width="32.379" height="226.654" style="fill:#3d4366;fill-rule:nonzero;"/><path d="M1278.37,59.513l0,226.655l-26.551,0l-135.993,-169.02l0,169.02l-32.379,0l0,-226.655l26.551,0l135.992,169.02l0,-169.02l32.38,0Z" style="fill:#3d4366;fill-rule:nonzero;"/></g><path d="M344.286,184.229c4.866,-4.902 4.866,-12.86 0,-17.761l-161.625,-162.792c-4.866,-4.901 -12.767,-4.901 -17.633,0l-161.379,162.543c-4.865,4.901 -4.865,12.86 0,17.761l161.626,162.792c4.866,4.901 12.767,4.901 17.633,0l161.378,-162.543Zm-81.595,-57.177l-155.917,117.593l67.688,67.991l136.569,-137.449l-48.34,-48.135Zm-88.188,-89.485l-137.204,137.732l48.312,47.945l155.354,-118.1l-66.462,-67.577Z" style="fill:#3d4366;"/></svg>