<?xml version="1.0" encoding="UTF-8" standalone="no"?><!DOCTYPE svg PUBLIC "-//W3C//DTD SVG 1.1//EN" "http://www.w3.org/Graphics/SVG/1.1/DTD/svg11.dtd"><svg width="100%" height="100%" viewBox="0 0 406 112" version="1.1" xmlns="http://www.w3.org/2000/svg" xmlns:xlink="http://www.w3.org/1999/xlink" xml:space="preserve" xmlns:serif="http://www.serif.com/" style="fill-rule:evenodd;clip-rule:evenodd;"><clipPath id="_clip1"><rect x="0" y="0" width="111.312" height="111.312"/></clipPath><g clip-path="url(#_clip1)"><path d="M55.656,6.787l48.869,48.869l-48.869,48.869l-48.869,-48.869l48.869,-48.869Z" style="fill:none;fill-rule:nonzero;stroke:#3d4366;stroke-width:10.18px;"/><path d="M28.507,76.018l54.299,-40.724" style="fill:none;fill-rule:nonzero;stroke:#3d4366;stroke-width:10.18px;"/></g><g><path d="M170.965,91.368c-7.322,0 -13.919,-1.606 -19.79,-4.818c-5.872,-3.212 -10.483,-7.651 -13.833,-13.315c-3.35,-5.664 -5.025,-11.984 -5.025,-18.961c0,-6.977 1.675,-13.297 5.025,-18.961c3.35,-5.664 7.961,-10.103 13.833,-13.315c5.871,-3.212 12.468,-4.818 19.79,-4.818c7.253,0 13.815,1.606 19.686,4.818c5.872,3.212 10.465,7.633 13.781,13.263c3.316,5.63 4.973,11.967 4.973,19.013c0,7.046 -1.657,13.383 -4.973,19.013c-3.316,5.63 -7.909,10.051 -13.781,13.263c-5.871,3.212 -12.433,4.818 -19.686,4.818Zm0,-9.222c5.319,0 10.102,-1.209 14.35,-3.626c4.248,-2.418 7.599,-5.751 10.051,-9.999c2.452,-4.248 3.678,-8.997 3.678,-14.247c0,-5.25 -1.226,-9.999 -3.678,-14.247c-2.452,-4.248 -5.803,-7.581 -10.051,-9.999c-4.248,-2.417 -9.031,-3.626 -14.35,-3.626c-5.319,0 -10.137,1.209 -14.454,3.626c-4.317,2.418 -7.702,5.751 -10.154,9.999c-2.452,4.248 -3.679,8.997 -3.679,14.247c0,5.25 1.227,9.999 3.679,14.247c2.452,4.248 5.837,7.581 10.154,9.999c4.317,2.417 9.135,3.626 14.454,3.626Z" style="fill:#3d4366;fill-rule:nonzero;"/><path d="M225.258,18.009l30.566,0c7.668,0 14.472,1.52 20.412,4.559c5.941,3.04 10.551,7.305 13.833,12.797c3.281,5.491 4.921,11.794 4.921,18.909c0,7.115 -1.64,13.418 -4.921,18.909c-3.282,5.492 -7.892,9.757 -13.833,12.797c-5.94,3.039 -12.744,4.559 -20.412,4.559l-30.566,0l0,-72.53Zm29.945,63.515c5.871,0 11.034,-1.139 15.49,-3.419c4.455,-2.279 7.892,-5.474 10.309,-9.584c2.418,-4.11 3.627,-8.859 3.627,-14.247c0,-5.388 -1.209,-10.137 -3.627,-14.247c-2.417,-4.11 -5.854,-7.305 -10.309,-9.584c-4.456,-2.28 -9.619,-3.419 -15.49,-3.419l-19.583,0l0,54.5l19.583,0Z" style="fill:#3d4366;fill-rule:nonzero;"/><rect x="310.843" y="18.009" width="10.361" height="72.529" style="fill:#3d4366;fill-rule:nonzero;"/><path d="M405.339,18.009l0,72.53l-8.497,0l-43.517,-54.087l0,54.087l-10.362,0l0,-72.53l8.497,0l43.517,54.086l0,-54.086l10.362,0Z" style="fill:#3d4366;fill-rule:nonzero;"/></g></svg>